# Blender 4.4.1
# www.blender.org
mtllib mo.mtl
o Cube
v -1.000000 -1.000000 0.500000
v -1.000000 -1.000000 -0.500000
v 0.242088 0.337935 -0.500000
v 0.242088 0.734018 -0.500000
v 1.000000 0.337935 -0.500000
v 1.000000 0.337935 0.500000
v 0.242089 0.734018 0.500000
v 0.242089 0.337935 0.500000
v -1.000000 0.337935 -0.500000
v -0.240022 0.337935 -0.500000
v -0.240022 0.734018 -0.500000
v -1.000000 0.337935 0.500000
v -0.240022 0.337935 0.500000
v -0.240022 0.734018 0.500000
v -1.000000 0.072251 -0.500000
v -0.240022 -0.323832 -0.500000
v -0.240022 0.072251 -0.500000
v -1.000000 0.072251 0.500000
v -0.240022 -0.323832 0.500000
v -0.240022 0.072251 0.500000
v 1.000000 0.072251 -0.500000
v 0.236619 0.072251 -0.500000
v 0.236619 -0.323832 -0.500000
v 1.000000 0.072251 0.500000
v 0.236619 0.072251 0.500000
v 0.236619 -0.323832 0.500000
v 0.236619 -1.000000 -0.500000
v 0.236619 -0.138870 -0.500000
v 0.236619 -1.000000 0.500000
v 0.236619 -0.138870 0.500000
v -1.000000 -0.732881 -0.500000
v -0.240022 -0.732881 -0.500000
v -0.240022 -0.131244 -0.500000
v -1.000000 -0.732881 0.500000
v -0.240022 -0.732881 0.500000
v -0.240022 -0.131244 0.500000
v -0.240022 -0.323832 0.193918
v -0.240022 -0.252921 0.320970
v -0.644739 1.000000 0.500000
v -0.644739 1.000000 -0.500000
v -0.644739 0.734018 -0.500000
v -0.644739 0.734018 0.500000
v 0.564768 1.000000 0.500000
v 0.564768 1.000000 -0.500000
v 0.564768 0.734018 -0.500000
v 0.564768 0.734018 0.500000
vn -0.0000 1.0000 -0.0000
vn -0.0000 -0.0000 -1.0000
vn 1.0000 -0.0000 -0.0000
vn -0.0000 -1.0000 -0.0000
vn -1.0000 -0.0000 -0.0000
vn -0.0000 -0.0000 1.0000
vt 0.669408 0.500000
vt 0.820596 0.750000
vt 0.669408 0.750000
vt 0.459521 0.904577
vt 0.375000 0.904577
vt 0.408390 0.844997
vt 0.542242 0.000000
vt 0.509031 0.250000
vt 0.509031 0.000000
vt 0.375000 0.750000
vt 0.220423 0.500000
vt 0.375000 0.500000
vt 0.408390 0.500000
vt 0.408390 0.750000
vt 0.542242 0.500000
vt 0.509031 0.750000
vt 0.509031 0.500000
vt 0.408390 0.405003
vt 0.375000 0.345423
vt 0.459521 0.345423
vt 0.625000 0.740960
vt 0.728984 0.509040
vt 0.625000 0.509040
vt 0.130763 0.740960
vt 0.375000 0.509040
vt 0.130763 0.509040
vt 0.375000 0.740960
vt 0.875000 0.509040
vt 0.744580 0.740960
vt 0.875000 0.740960
vt 0.375000 0.009040
vt 0.625000 0.240960
vt 0.625000 0.009040
vt 0.125000 0.740960
vt 0.369903 0.509040
vt 0.125000 0.509040
vt 0.630097 0.509040
vt 0.630097 0.740960
vt 0.496558 0.009040
vt 0.496558 0.240960
vt 0.375000 0.169973
vt 0.375000 0.240960
vt 0.419758 0.199439
vt 0.871000 0.740960
vt 0.491744 0.740960
vt 0.491744 0.509040
vt 0.575036 0.509040
vt 0.392381 0.740960
vt 0.575036 0.740960
vt 0.544973 0.240960
vt 0.544973 0.169973
vt 0.542825 0.009040
vt 0.432300 0.240960
vt 0.542825 0.240960
vt 0.542825 0.509040
vt 0.432300 0.740960
vt 0.542825 0.740960
vt 0.820596 0.500000
vt 0.509031 0.844997
vt 0.542242 0.750000
vt 0.542242 0.844997
vt 0.591752 0.844997
vt 0.591752 0.794408
vt 0.625000 0.794408
vt 0.625000 0.945596
vt 0.591752 0.945596
vt 0.591752 0.905261
vt 0.542242 0.905261
vt 0.542242 1.000000
vt 0.509031 1.000000
vt 0.509031 0.904577
vt 0.483595 0.844997
vt 0.482641 0.904577
vt 0.459521 0.844997
vt 0.542242 0.250000
vt 0.220423 0.750000
vt 0.509031 0.345423
vt 0.542242 0.344739
vt 0.542242 0.405003
vt 0.591752 0.344739
vt 0.591752 0.304404
vt 0.625000 0.304404
vt 0.625000 0.455592
vt 0.591752 0.405003
vt 0.591752 0.455592
vt 0.509031 0.405003
vt 0.482641 0.345423
vt 0.483594 0.405003
vt 0.459521 0.405003
vt 0.728984 0.740960
vt 0.744580 0.509040
vt 0.369903 0.740960
vt 0.871000 0.509040
vt 0.392381 0.509040
vt 0.544973 0.009040
vt 0.432300 0.009040
vt 0.432300 0.509040
s 0
usemtl Material
f 39/1/1 44/2/1 40/3/1
f 23/4/2 27/5/2 32/6/2
f 5/7/3 24/8/3 21/9/3
f 2/10/4 29/11/4 1/12/4
f 2/10/5 34/13/5 31/14/5
f 12/15/5 15/16/5 18/17/5
f 35/18/6 29/19/6 26/20/6
f 4/21/4 46/22/4 7/23/4
f 5/24/1 8/25/1 6/26/1
f 3/27/3 7/23/3 8/25/3
f 14/28/4 41/29/4 11/30/4
f 10/31/5 14/32/5 11/33/5
f 10/34/1 12/35/1 13/36/1
f 17/30/4 18/37/4 15/38/4
f 20/32/5 33/39/5 36/40/5
f 37/41/5 19/42/5 38/43/5
f 38/43/5 33/39/5 37/41/5
f 21/44/4 25/23/4 22/21/4
f 25/23/3 28/45/3 22/21/3
f 30/46/3 23/27/3 28/45/3
f 26/47/3 27/48/3 23/49/3
f 35/42/5 19/50/5 37/51/5
f 32/34/1 34/35/1 35/36/1
f 40/52/5 42/53/5 39/54/5
f 43/55/3 45/56/3 44/57/3
f 39/1/1 43/58/1 44/2/1
f 17/59/2 15/16/2 9/60/2
f 17/59/2 9/60/2 10/61/2
f 11/62/2 41/63/2 40/64/2
f 40/64/2 44/65/2 11/62/2
f 44/65/2 45/66/2 4/67/2
f 44/65/2 4/67/2 11/62/2
f 3/68/2 5/69/2 21/70/2
f 11/62/2 4/67/2 3/68/2
f 10/61/2 11/62/2 3/68/2
f 3/68/2 21/70/2 22/71/2
f 10/61/2 3/68/2 22/71/2
f 17/59/2 10/61/2 22/71/2
f 17/59/2 22/71/2 33/72/2
f 22/71/2 28/73/2 33/72/2
f 33/72/2 28/73/2 16/74/2
f 28/73/2 23/4/2 16/74/2
f 27/5/2 2/10/2 32/6/2
f 2/10/2 31/14/2 32/6/2
f 32/6/2 16/74/2 23/4/2
f 5/7/3 6/75/3 24/8/3
f 2/10/4 27/76/4 29/11/4
f 2/10/5 1/12/5 34/13/5
f 12/15/5 9/60/5 15/16/5
f 25/77/6 24/8/6 8/78/6
f 24/8/6 6/75/6 8/78/6
f 25/77/6 8/78/6 13/79/6
f 8/78/6 7/80/6 13/79/6
f 7/80/6 46/81/6 43/82/6
f 43/82/6 39/83/6 14/84/6
f 39/83/6 42/85/6 14/84/6
f 7/80/6 43/82/6 14/84/6
f 13/79/6 12/15/6 18/17/6
f 7/80/6 14/84/6 13/79/6
f 13/79/6 18/17/6 20/86/6
f 25/77/6 13/79/6 20/86/6
f 30/87/6 25/77/6 36/88/6
f 25/77/6 20/86/6 36/88/6
f 26/20/6 30/87/6 19/89/6
f 30/87/6 36/88/6 19/89/6
f 34/13/6 1/12/6 35/18/6
f 1/12/6 29/19/6 35/18/6
f 26/20/6 19/89/6 35/18/6
f 4/21/4 45/90/4 46/22/4
f 5/24/1 3/27/1 8/25/1
f 3/27/3 4/21/3 7/23/3
f 14/28/4 42/91/4 41/29/4
f 10/31/5 13/42/5 14/32/5
f 10/34/1 9/92/1 12/35/1
f 17/30/4 20/28/4 18/37/4
f 20/32/5 17/33/5 33/39/5
f 38/43/5 19/42/5 36/40/5
f 36/40/5 33/39/5 38/43/5
f 33/39/5 16/31/5 37/41/5
f 21/44/4 24/93/4 25/23/4
f 25/23/3 30/46/3 28/45/3
f 30/46/3 26/25/3 23/27/3
f 26/47/3 29/94/3 27/48/3
f 37/51/5 16/95/5 32/31/5
f 32/31/5 35/42/5 37/51/5
f 32/34/1 31/92/1 34/35/1
f 40/52/5 41/96/5 42/53/5
f 43/55/3 46/97/3 45/56/3
