# Blender 4.2.0
# www.blender.org
mtllib LeftArm.mtl
o 左前足.001
v 0.454243 -0.100000 1.150536
v 0.454243 -0.100000 0.950536
v 0.454243 0.100000 1.150536
v 0.854243 -0.179857 1.309439
v 0.854243 0.020143 1.309439
v 0.854243 -0.179857 1.109439
v 0.854243 0.020143 1.109439
v 1.044002 -0.483750 1.286426
v 1.044002 -0.283750 1.286426
v 1.044002 -0.283750 1.486426
v 1.044002 -0.483750 1.486426
v 0.454243 0.100000 0.950536
v 0.431348 -0.100000 0.851226
v 0.341372 -0.100000 0.672608
v 0.431348 0.100000 0.851226
v 0.860071 -0.179857 0.813187
v 0.860071 0.020143 0.813187
v 0.770095 -0.179857 0.634570
v 0.770095 0.020143 0.634570
v 1.019189 -0.483750 0.707265
v 1.019189 -0.283750 0.707265
v 1.109165 -0.283750 0.885883
v 1.109165 -0.483750 0.885883
v 0.341372 0.100000 0.672608
vn -0.1958 -0.9806 -0.0000
vn -1.0000 -0.0000 -0.0000
vn -0.3692 -0.0000 0.9294
vn 0.3692 -0.0000 -0.9294
vn 0.6821 -0.0000 -0.7313
vn -0.8482 -0.5297 -0.0000
vn 1.0000 -0.0000 -0.0000
vn 0.8482 0.5296 -0.0000
vn -0.8482 -0.5296 -0.0000
vn -0.6821 -0.0000 0.7313
vn 0.1958 0.9806 -0.0000
vn -0.1748 -0.9806 0.0881
vn -0.8931 -0.0000 0.4499
vn 0.0884 -0.0000 0.9961
vn -0.0884 -0.0000 -0.9961
vn 0.2802 -0.0000 -0.9600
vn -0.7575 -0.5296 0.3816
vn 0.8931 -0.0000 -0.4499
vn 0.7575 0.5296 -0.3816
vn -0.2802 -0.0000 0.9600
vn 0.1748 0.9806 -0.0881
vt 0.071191 0.593760
vt 0.032489 0.552235
vt 0.054538 0.535481
vt 0.015735 0.530187
vt 0.073249 0.742128
vt 0.032490 0.786988
vt 0.015735 0.764939
vt 0.049142 0.610515
vt 0.056495 0.720079
vt 0.189897 0.632597
vt 0.152512 0.681898
vt 0.135757 0.659849
vt 0.098447 0.670133
vt 0.081692 0.648085
vt 0.059644 0.664839
vt 0.076398 0.686888
vt 0.125923 0.711559
vt 0.147972 0.694804
vt 0.199661 0.726460
vt 0.177612 0.743215
vt 0.206651 0.654645
vt 0.037784 0.513432
vt 0.841818 0.506433
vt 0.880519 0.547958
vt 0.858470 0.564712
vt 0.897274 0.570007
vt 0.839759 0.358065
vt 0.880519 0.313205
vt 0.897274 0.335254
vt 0.863867 0.489678
vt 0.856514 0.380114
vt 0.723112 0.467597
vt 0.760497 0.418295
vt 0.777252 0.440344
vt 0.814562 0.430060
vt 0.831316 0.452109
vt 0.853365 0.435354
vt 0.836610 0.413305
vt 0.787085 0.388635
vt 0.765036 0.405389
vt 0.713348 0.373733
vt 0.735397 0.356979
vt 0.706357 0.445548
vt 0.875225 0.586761
s 0
usemtl マテリアル.002
f 6/1/1 1/2/1 2/3/1
f 3/4/2 2/3/2 1/2/2
f 5/5/3 3/6/3 1/7/3
f 6/1/1 4/8/1 1/2/1
f 5/5/3 1/7/3 4/9/3
f 2/10/4 7/11/4 6/12/4
f 6/12/5 7/11/5 9/13/5
f 4/8/6 6/1/6 8/14/6
f 6/12/5 9/13/5 8/14/5
f 9/13/7 11/15/7 8/14/7
f 9/13/7 10/16/7 11/15/7
f 5/17/8 10/16/8 9/13/8
f 5/17/8 9/13/8 7/18/8
f 4/8/9 8/14/9 11/15/9
f 4/9/10 11/15/10 10/16/10
f 4/9/10 10/16/10 5/5/10
f 7/18/11 12/19/11 3/20/11
f 2/10/4 12/21/4 7/11/4
f 7/18/11 3/20/11 5/17/11
f 3/4/2 12/22/2 2/3/2
f 18/23/12 13/24/12 14/25/12
f 15/26/13 14/25/13 13/24/13
f 17/27/14 15/28/14 13/29/14
f 18/23/12 16/30/12 13/24/12
f 17/27/14 13/29/14 16/31/14
f 14/32/15 19/33/15 18/34/15
f 18/34/16 19/33/16 21/35/16
f 16/30/17 18/23/17 20/36/17
f 18/34/16 21/35/16 20/36/16
f 21/35/18 23/37/18 20/36/18
f 21/35/18 22/38/18 23/37/18
f 17/39/19 22/38/19 21/35/19
f 17/39/19 21/35/19 19/40/19
f 16/30/17 20/36/17 23/37/17
f 16/31/20 23/37/20 22/38/20
f 16/31/20 22/38/20 17/27/20
f 19/40/21 24/41/21 15/42/21
f 14/32/15 24/43/15 19/33/15
f 19/40/21 15/42/21 17/39/21
f 15/26/13 24/44/13 14/25/13
