# Blender 4.4.1
# www.blender.org
mtllib playerArm.mtl
o 前足
v -0.462053 -0.100000 1.150536
v -0.462053 -0.100000 0.950536
v -0.462053 0.100000 1.150536
v -0.862053 -0.179857 1.309439
v -0.862053 0.020143 1.309439
v -0.862053 -0.179857 1.109439
v -0.862053 0.020143 1.109439
v -1.051812 -0.483750 1.286426
v -1.051812 -0.283750 1.286426
v -1.051812 -0.283750 1.486426
v -1.051812 -0.483750 1.486426
v -0.462053 0.100000 0.950536
v 0.454243 -0.100000 1.150536
v 0.454243 -0.100000 0.950536
v 0.454243 0.100000 1.150536
v 0.854243 -0.179857 1.309439
v 0.854243 0.020143 1.309439
v 0.854243 -0.179857 1.109439
v 0.854243 0.020143 1.109439
v 1.044002 -0.483750 1.286426
v 1.044002 -0.283750 1.286426
v 1.044002 -0.283750 1.486426
v 1.044002 -0.483750 1.486426
v 0.454243 0.100000 0.950536
v 0.431348 -0.100000 0.851226
v 0.341372 -0.100000 0.672608
v 0.431348 0.100000 0.851226
v 0.860071 -0.179857 0.813187
v 0.860071 0.020143 0.813187
v 0.770095 -0.179857 0.634570
v 0.770095 0.020143 0.634570
v 1.019189 -0.483750 0.707265
v 1.019189 -0.283750 0.707265
v 1.109165 -0.283750 0.885883
v 1.109165 -0.483750 0.885883
v 0.341372 0.100000 0.672608
v -0.439158 -0.100000 0.851226
v -0.349181 -0.100000 0.672608
v -0.439158 0.100000 0.851226
v -0.867881 -0.179857 0.813187
v -0.867881 0.020143 0.813187
v -0.777904 -0.179857 0.634570
v -0.777904 0.020143 0.634570
v -1.026999 -0.483750 0.707265
v -1.026999 -0.283750 0.707265
v -1.116975 -0.283750 0.885883
v -1.116975 -0.483750 0.885883
v -0.349181 0.100000 0.672608
vn -0.1958 0.9806 -0.0000
vn -1.0000 -0.0000 -0.0000
vn -0.3692 -0.0000 -0.9294
vn 0.3692 -0.0000 0.9294
vn 0.6821 -0.0000 0.7313
vn -0.8482 0.5296 -0.0000
vn 1.0000 -0.0000 -0.0000
vn 0.8482 -0.5296 -0.0000
vn -0.6821 -0.0000 -0.7313
vn 0.1958 -0.9806 -0.0000
vn -0.1958 -0.9806 -0.0000
vn -0.3692 -0.0000 0.9294
vn 0.3692 -0.0000 -0.9294
vn 0.6821 -0.0000 -0.7313
vn -0.8482 -0.5296 -0.0000
vn 0.8482 0.5296 -0.0000
vn -0.6821 -0.0000 0.7313
vn 0.1958 0.9806 -0.0000
vn -0.1748 -0.9806 0.0881
vn -0.8931 -0.0000 0.4499
vn 0.0884 -0.0000 0.9961
vn -0.0884 -0.0000 -0.9961
vn 0.2802 -0.0000 -0.9600
vn -0.7575 -0.5296 0.3816
vn 0.8931 -0.0000 -0.4499
vn 0.7575 0.5296 -0.3816
vn -0.2802 -0.0000 0.9600
vn 0.1748 0.9806 -0.0881
vn -0.1748 0.9806 -0.0881
vn -0.8931 -0.0000 -0.4499
vn 0.0884 -0.0000 -0.9961
vn -0.0884 -0.0000 0.9961
vn 0.2802 -0.0000 0.9600
vn -0.7575 0.5296 -0.3816
vn 0.8931 -0.0000 0.4499
vn 0.7575 -0.5296 0.3816
vn -0.2802 -0.0000 -0.9600
vn 0.1748 -0.9806 0.0881
vt 0.754018 0.717367
vt 0.792719 0.758892
vt 0.770670 0.775647
vt 0.809474 0.780941
vt 0.751959 0.569000
vt 0.792719 0.524139
vt 0.809474 0.546188
vt 0.776067 0.700613
vt 0.768714 0.591048
vt 0.635312 0.678531
vt 0.672697 0.629230
vt 0.689452 0.651278
vt 0.726761 0.640994
vt 0.743516 0.663043
vt 0.765565 0.646289
vt 0.748810 0.624240
vt 0.699285 0.599569
vt 0.677236 0.616323
vt 0.625548 0.584667
vt 0.647597 0.567913
vt 0.618557 0.656482
vt 0.787425 0.797696
vt 0.071191 0.593760
vt 0.032489 0.552235
vt 0.054538 0.535481
vt 0.015735 0.530187
vt 0.073249 0.742128
vt 0.032490 0.786988
vt 0.015735 0.764939
vt 0.049142 0.610515
vt 0.056495 0.720079
vt 0.189897 0.632597
vt 0.152512 0.681898
vt 0.135757 0.659849
vt 0.098447 0.670133
vt 0.081692 0.648085
vt 0.059644 0.664839
vt 0.076398 0.686888
vt 0.125923 0.711559
vt 0.147972 0.694804
vt 0.199661 0.726460
vt 0.177612 0.743215
vt 0.206651 0.654645
vt 0.037784 0.513432
vt 0.841818 0.506433
vt 0.880519 0.547958
vt 0.858470 0.564712
vt 0.897274 0.570007
vt 0.839759 0.358065
vt 0.880519 0.313205
vt 0.897274 0.335254
vt 0.863867 0.489678
vt 0.856514 0.380114
vt 0.723112 0.467597
vt 0.760497 0.418295
vt 0.777252 0.440344
vt 0.814562 0.430060
vt 0.831316 0.452109
vt 0.853365 0.435354
vt 0.836610 0.413305
vt 0.787085 0.388635
vt 0.765036 0.405389
vt 0.713348 0.373733
vt 0.735397 0.356979
vt 0.706357 0.445548
vt 0.875225 0.586761
vt 0.357847 0.829794
vt 0.396548 0.871319
vt 0.374499 0.888074
vt 0.413303 0.893368
vt 0.355788 0.681426
vt 0.396548 0.636566
vt 0.413303 0.658615
vt 0.379896 0.813039
vt 0.372543 0.703475
vt 0.239141 0.790958
vt 0.276526 0.741657
vt 0.293281 0.763705
vt 0.330591 0.753421
vt 0.347345 0.775470
vt 0.369394 0.758715
vt 0.352640 0.736667
vt 0.303114 0.711996
vt 0.281066 0.728750
vt 0.229377 0.697094
vt 0.251426 0.680340
vt 0.222386 0.768909
vt 0.391254 0.910122
s 0
usemtl マテリアル.002
f 6/1/1 1/2/1 2/3/1
f 3/4/2 2/3/2 1/2/2
f 5/5/3 3/6/3 1/7/3
f 6/1/1 4/8/1 1/2/1
f 5/5/3 1/7/3 4/9/3
f 2/10/4 7/11/4 6/12/4
f 6/12/5 7/11/5 9/13/5
f 4/8/6 6/1/6 8/14/6
f 6/12/5 9/13/5 8/14/5
f 9/13/7 11/15/7 8/14/7
f 9/13/7 10/16/7 11/15/7
f 5/17/8 10/16/8 9/13/8
f 5/17/8 9/13/8 7/18/8
f 4/8/6 8/14/6 11/15/6
f 4/9/9 11/15/9 10/16/9
f 4/9/9 10/16/9 5/5/9
f 7/18/10 12/19/10 3/20/10
f 2/10/4 12/21/4 7/11/4
f 7/18/10 3/20/10 5/17/10
f 3/4/2 12/22/2 2/3/2
f 18/23/11 13/24/11 14/25/11
f 15/26/2 14/25/2 13/24/2
f 17/27/12 15/28/12 13/29/12
f 18/23/11 16/30/11 13/24/11
f 17/27/12 13/29/12 16/31/12
f 14/32/13 19/33/13 18/34/13
f 18/34/14 19/33/14 21/35/14
f 16/30/15 18/23/15 20/36/15
f 18/34/14 21/35/14 20/36/14
f 21/35/7 23/37/7 20/36/7
f 21/35/7 22/38/7 23/37/7
f 17/39/16 22/38/16 21/35/16
f 17/39/16 21/35/16 19/40/16
f 16/30/15 20/36/15 23/37/15
f 16/31/17 23/37/17 22/38/17
f 16/31/17 22/38/17 17/27/17
f 19/40/18 24/41/18 15/42/18
f 14/32/13 24/43/13 19/33/13
f 19/40/18 15/42/18 17/39/18
f 15/26/2 24/44/2 14/25/2
f 30/45/19 25/46/19 26/47/19
f 27/48/20 26/47/20 25/46/20
f 29/49/21 27/50/21 25/51/21
f 30/45/19 28/52/19 25/46/19
f 29/49/21 25/51/21 28/53/21
f 26/54/22 31/55/22 30/56/22
f 30/56/23 31/55/23 33/57/23
f 28/52/24 30/45/24 32/58/24
f 30/56/23 33/57/23 32/58/23
f 33/57/25 35/59/25 32/58/25
f 33/57/25 34/60/25 35/59/25
f 29/61/26 34/60/26 33/57/26
f 29/61/26 33/57/26 31/62/26
f 28/52/24 32/58/24 35/59/24
f 28/53/27 35/59/27 34/60/27
f 28/53/27 34/60/27 29/49/27
f 31/62/28 36/63/28 27/64/28
f 26/54/22 36/65/22 31/55/22
f 31/62/28 27/64/28 29/61/28
f 27/48/20 36/66/20 26/47/20
f 42/67/29 37/68/29 38/69/29
f 39/70/30 38/69/30 37/68/30
f 41/71/31 39/72/31 37/73/31
f 42/67/29 40/74/29 37/68/29
f 41/71/31 37/73/31 40/75/31
f 38/76/32 43/77/32 42/78/32
f 42/78/33 43/77/33 45/79/33
f 40/74/34 42/67/34 44/80/34
f 42/78/33 45/79/33 44/80/33
f 45/79/35 47/81/35 44/80/35
f 45/79/35 46/82/35 47/81/35
f 41/83/36 46/82/36 45/79/36
f 41/83/36 45/79/36 43/84/36
f 40/74/34 44/80/34 47/81/34
f 40/75/37 47/81/37 46/82/37
f 40/75/37 46/82/37 41/71/37
f 43/84/38 48/85/38 39/86/38
f 38/76/32 48/87/32 43/77/32
f 43/84/38 39/86/38 41/83/38
f 39/70/30 48/88/30 38/69/30
