# Blender 4.2.0
# www.blender.org
mtllib RightArm.mtl
o 右前足
v -0.462053 -0.100000 1.150536
v -0.462053 -0.100000 0.950536
v -0.462053 0.100000 1.150536
v -0.862053 -0.179857 1.309439
v -0.862053 0.020143 1.309439
v -0.862053 -0.179857 1.109439
v -0.862053 0.020143 1.109439
v -1.051812 -0.483750 1.286426
v -1.051812 -0.283750 1.286426
v -1.051812 -0.283750 1.486426
v -1.051812 -0.483750 1.486426
v -0.462053 0.100000 0.950536
v -0.439158 -0.100000 0.851226
v -0.349181 -0.100000 0.672608
v -0.439158 0.100000 0.851226
v -0.867881 -0.179857 0.813187
v -0.867881 0.020143 0.813187
v -0.777904 -0.179857 0.634570
v -0.777904 0.020143 0.634570
v -1.026999 -0.483750 0.707265
v -1.026999 -0.283750 0.707265
v -1.116975 -0.283750 0.885883
v -1.116975 -0.483750 0.885883
v -0.349181 0.100000 0.672608
vn -0.1958 0.9806 -0.0000
vn -1.0000 -0.0000 -0.0000
vn -0.3692 -0.0000 -0.9294
vn 0.3692 -0.0000 0.9294
vn 0.6821 -0.0000 0.7313
vn -0.8482 0.5297 -0.0000
vn 1.0000 -0.0000 -0.0000
vn 0.8482 -0.5296 -0.0000
vn -0.8482 0.5296 -0.0000
vn -0.6821 -0.0000 -0.7313
vn 0.1958 -0.9806 -0.0000
vn -0.1748 0.9806 -0.0881
vn -0.8931 -0.0000 -0.4499
vn 0.0884 -0.0000 -0.9961
vn -0.0884 -0.0000 0.9961
vn 0.2802 -0.0000 0.9600
vn -0.7575 0.5296 -0.3816
vn 0.8931 -0.0000 0.4499
vn 0.7575 -0.5296 0.3816
vn -0.2802 -0.0000 -0.9600
vn 0.1748 -0.9806 0.0881
vt 0.754018 0.717367
vt 0.792719 0.758892
vt 0.770670 0.775647
vt 0.809474 0.780941
vt 0.751959 0.569000
vt 0.792719 0.524139
vt 0.809474 0.546188
vt 0.776067 0.700613
vt 0.768714 0.591048
vt 0.635312 0.678531
vt 0.672697 0.629230
vt 0.689452 0.651278
vt 0.726761 0.640994
vt 0.743516 0.663043
vt 0.765565 0.646289
vt 0.748810 0.624240
vt 0.699285 0.599569
vt 0.677236 0.616323
vt 0.625548 0.584667
vt 0.647597 0.567913
vt 0.618557 0.656482
vt 0.787425 0.797696
vt 0.357847 0.829794
vt 0.396548 0.871319
vt 0.374499 0.888074
vt 0.413303 0.893368
vt 0.355788 0.681426
vt 0.396548 0.636566
vt 0.413303 0.658615
vt 0.379896 0.813039
vt 0.372543 0.703475
vt 0.239141 0.790958
vt 0.276526 0.741657
vt 0.293281 0.763705
vt 0.330591 0.753421
vt 0.347345 0.775470
vt 0.369394 0.758715
vt 0.352640 0.736667
vt 0.303114 0.711996
vt 0.281066 0.728750
vt 0.229377 0.697094
vt 0.251426 0.680340
vt 0.222386 0.768909
vt 0.391254 0.910122
s 0
usemtl マテリアル.002
f 6/1/1 1/2/1 2/3/1
f 3/4/2 2/3/2 1/2/2
f 5/5/3 3/6/3 1/7/3
f 6/1/1 4/8/1 1/2/1
f 5/5/3 1/7/3 4/9/3
f 2/10/4 7/11/4 6/12/4
f 6/12/5 7/11/5 9/13/5
f 4/8/6 6/1/6 8/14/6
f 6/12/5 9/13/5 8/14/5
f 9/13/7 11/15/7 8/14/7
f 9/13/7 10/16/7 11/15/7
f 5/17/8 10/16/8 9/13/8
f 5/17/8 9/13/8 7/18/8
f 4/8/9 8/14/9 11/15/9
f 4/9/10 11/15/10 10/16/10
f 4/9/10 10/16/10 5/5/10
f 7/18/11 12/19/11 3/20/11
f 2/10/4 12/21/4 7/11/4
f 7/18/11 3/20/11 5/17/11
f 3/4/2 12/22/2 2/3/2
f 18/23/12 13/24/12 14/25/12
f 15/26/13 14/25/13 13/24/13
f 17/27/14 15/28/14 13/29/14
f 18/23/12 16/30/12 13/24/12
f 17/27/14 13/29/14 16/31/14
f 14/32/15 19/33/15 18/34/15
f 18/34/16 19/33/16 21/35/16
f 16/30/17 18/23/17 20/36/17
f 18/34/16 21/35/16 20/36/16
f 21/35/18 23/37/18 20/36/18
f 21/35/18 22/38/18 23/37/18
f 17/39/19 22/38/19 21/35/19
f 17/39/19 21/35/19 19/40/19
f 16/30/17 20/36/17 23/37/17
f 16/31/20 23/37/20 22/38/20
f 16/31/20 22/38/20 17/27/20
f 19/40/21 24/41/21 15/42/21
f 14/32/15 24/43/15 19/33/15
f 19/40/21 15/42/21 17/39/21
f 15/26/13 24/44/13 14/25/13
