# Blender 4.4.1
# www.blender.org
mtllib oneWay.mtl
o 円柱
v -1.300268 0.000000 -1.000000
v 1.300268 -0.000000 -1.000000
v -1.300268 -0.195090 -0.980785
v 1.300268 -0.195090 -0.980785
v -1.300268 -0.382683 -0.923880
v 1.300268 -0.382683 -0.923880
v -1.300268 -0.555570 -0.831470
v 1.300268 -0.555570 -0.831470
v -1.300268 -0.707107 -0.707107
v 1.300268 -0.707107 -0.707107
v -1.300268 -0.831470 -0.555570
v 1.300268 -0.831470 -0.555570
v -1.300268 -0.923879 -0.382683
v 1.300268 -0.923880 -0.382683
v -1.300268 -0.980785 -0.195090
v 1.300268 -0.980785 -0.195090
v -1.300268 -1.000000 0.000000
v 1.300268 -1.000000 0.000000
v -1.300268 -0.980785 0.195090
v 1.300268 -0.980785 0.195090
v -1.300268 -0.923879 0.382683
v 1.300268 -0.923880 0.382683
v -1.300268 -0.831470 0.555570
v 1.300268 -0.831470 0.555570
v -1.300268 -0.707107 0.707107
v 1.300268 -0.707107 0.707107
v -1.300268 -0.555570 0.831470
v 1.300268 -0.555570 0.831470
v -1.300268 -0.382683 0.923880
v 1.300268 -0.382683 0.923880
v -1.300268 -0.195090 0.980785
v 1.300268 -0.195090 0.980785
v -1.300268 0.000000 1.000000
v 1.300268 -0.000000 1.000000
v -1.300268 0.195090 0.980785
v 1.300268 0.195090 0.980785
v -1.300268 0.382683 0.923880
v 1.300268 0.382683 0.923880
v -1.300268 0.555570 0.831470
v 1.300268 0.555570 0.831470
v -1.300268 0.707107 0.707107
v 1.300268 0.707107 0.707107
v -1.300268 0.831470 0.555570
v 1.300268 0.831470 0.555570
v -1.300268 0.923880 0.382683
v 1.300268 0.923879 0.382683
v -1.300268 0.980785 0.195090
v 1.300268 0.980785 0.195090
v -1.300268 1.000000 0.000000
v 1.300268 1.000000 0.000000
v -1.300268 0.980785 -0.195090
v 1.300268 0.980785 -0.195090
v -1.300268 0.923880 -0.382683
v 1.300268 0.923879 -0.382683
v -1.300268 0.831470 -0.555570
v 1.300268 0.831470 -0.555570
v -1.300268 0.707107 -0.707107
v 1.300268 0.707107 -0.707107
v -1.300268 0.555570 -0.831470
v 1.300268 0.555570 -0.831470
v -1.300268 0.382683 -0.923880
v 1.300268 0.382683 -0.923880
v -1.300268 0.195090 -0.980785
v 1.300268 0.195090 -0.980785
vn -0.0000 -0.0980 -0.9952
vn -0.0000 -0.2903 -0.9569
vn -0.0000 -0.4714 -0.8819
vn -0.0000 -0.6344 -0.7730
vn -0.0000 -0.7730 -0.6344
vn -0.0000 -0.8819 -0.4714
vn -0.0000 -0.9569 -0.2903
vn -0.0000 -0.9952 -0.0980
vn -0.0000 -0.9952 0.0980
vn -0.0000 -0.9569 0.2903
vn -0.0000 -0.8819 0.4714
vn -0.0000 -0.7730 0.6344
vn -0.0000 -0.6344 0.7730
vn -0.0000 -0.4714 0.8819
vn -0.0000 -0.2903 0.9569
vn -0.0000 -0.0980 0.9952
vn -0.0000 0.0980 0.9952
vn -0.0000 0.2903 0.9569
vn -0.0000 0.4714 0.8819
vn -0.0000 0.6344 0.7730
vn -0.0000 0.7730 0.6344
vn -0.0000 0.8819 0.4714
vn -0.0000 0.9569 0.2903
vn -0.0000 0.9952 0.0980
vn -0.0000 0.9952 -0.0980
vn -0.0000 0.9569 -0.2903
vn -0.0000 0.8819 -0.4714
vn -0.0000 0.7730 -0.6344
vn -0.0000 0.6344 -0.7730
vn -0.0000 0.4714 -0.8819
vn 1.0000 -0.0000 -0.0000
vn -0.0000 0.2903 -0.9569
vn -0.0000 0.0980 -0.9952
vn -1.0000 -0.0000 -0.0000
vt 0.385351 0.008470
vt 0.008470 0.045411
vt 0.008470 0.008470
vt 0.385351 0.045411
vt 0.008470 0.082352
vt 0.385351 0.082352
vt 0.008470 0.119293
vt 0.385351 0.119293
vt 0.008470 0.156234
vt 0.385351 0.156234
vt 0.008470 0.193174
vt 0.385351 0.193174
vt 0.008470 0.230115
vt 0.385351 0.230115
vt 0.008470 0.267056
vt 0.385351 0.267056
vt 0.008470 0.303997
vt 0.385351 0.303997
vt 0.008470 0.340937
vt 0.385351 0.340937
vt 0.008470 0.377878
vt 0.385351 0.377878
vt 0.008470 0.414819
vt 0.385351 0.414819
vt 0.008470 0.451760
vt 0.385351 0.488700
vt 0.008470 0.488701
vt 0.385351 0.525641
vt 0.008470 0.525641
vt 0.008470 0.562582
vt 0.385351 0.562582
vt 0.008470 0.599523
vt 0.779173 0.008470
vt 0.402292 0.045411
vt 0.402292 0.008470
vt 0.779173 0.045411
vt 0.402292 0.082352
vt 0.779173 0.119293
vt 0.402292 0.119293
vt 0.779173 0.156234
vt 0.402292 0.156234
vt 0.402292 0.193174
vt 0.779173 0.193174
vt 0.402292 0.230115
vt 0.779173 0.230115
vt 0.402292 0.267056
vt 0.779173 0.267056
vt 0.402292 0.303997
vt 0.779173 0.303997
vt 0.402292 0.340937
vt 0.779173 0.340937
vt 0.402292 0.377878
vt 0.779173 0.377878
vt 0.402292 0.414819
vt 0.779173 0.414819
vt 0.402292 0.451760
vt 0.779173 0.451760
vt 0.402292 0.488700
vt 0.779173 0.488700
vt 0.402292 0.525641
vt 0.177533 0.991530
vt 0.008470 0.785526
vt 0.214474 0.616464
vt 0.779173 0.525641
vt 0.402292 0.562582
vt 0.779173 0.562582
vt 0.402292 0.599523
vt 0.407684 0.858698
vt 0.533309 0.623670
vt 0.768336 0.749295
vt 0.385351 0.451760
vt 0.385351 0.599523
vt 0.779173 0.082352
vt 0.141302 0.984323
vt 0.050337 0.923542
vt 0.107173 0.970186
vt 0.076458 0.949663
vt 0.029814 0.892827
vt 0.015677 0.858698
vt 0.008470 0.822467
vt 0.015677 0.749295
vt 0.029814 0.715166
vt 0.050337 0.684451
vt 0.076458 0.658330
vt 0.107173 0.637807
vt 0.141302 0.623670
vt 0.177533 0.616464
vt 0.250705 0.623670
vt 0.284833 0.637807
vt 0.315549 0.658330
vt 0.341670 0.684451
vt 0.362193 0.715166
vt 0.376330 0.749295
vt 0.383536 0.785526
vt 0.383536 0.822467
vt 0.376330 0.858698
vt 0.362193 0.892827
vt 0.341670 0.923542
vt 0.315549 0.949663
vt 0.284833 0.970186
vt 0.250705 0.984323
vt 0.214474 0.991530
vt 0.779173 0.599523
vt 0.775543 0.785526
vt 0.775543 0.822467
vt 0.768336 0.858698
vt 0.754200 0.892827
vt 0.733676 0.923542
vt 0.707555 0.949663
vt 0.676840 0.970186
vt 0.642711 0.984323
vt 0.606480 0.991530
vt 0.569540 0.991530
vt 0.533309 0.984323
vt 0.499180 0.970186
vt 0.468465 0.949663
vt 0.442344 0.923542
vt 0.421821 0.892827
vt 0.400477 0.822467
vt 0.421821 0.715166
vt 0.400477 0.785526
vt 0.407684 0.749295
vt 0.442344 0.684451
vt 0.468465 0.658330
vt 0.499180 0.637807
vt 0.569540 0.616464
vt 0.676840 0.637807
vt 0.606481 0.616464
vt 0.642712 0.623670
vt 0.707555 0.658330
vt 0.733677 0.684451
vt 0.754200 0.715166
s 0
usemtl マテリアル
f 2/1/1 3/2/1 1/3/1
f 4/4/2 5/5/2 3/2/2
f 6/6/3 7/7/3 5/5/3
f 8/8/4 9/9/4 7/7/4
f 10/10/5 11/11/5 9/9/5
f 12/12/6 13/13/6 11/11/6
f 14/14/7 15/15/7 13/13/7
f 16/16/8 17/17/8 15/15/8
f 18/18/9 19/19/9 17/17/9
f 20/20/10 21/21/10 19/19/10
f 22/22/11 23/23/11 21/21/11
f 24/24/12 25/25/12 23/23/12
f 25/25/13 28/26/13 27/27/13
f 27/27/14 30/28/14 29/29/14
f 30/28/15 31/30/15 29/29/15
f 32/31/16 33/32/16 31/30/16
f 34/33/17 35/34/17 33/35/17
f 36/36/18 37/37/18 35/34/18
f 37/37/19 40/38/19 39/39/19
f 39/39/20 42/40/20 41/41/20
f 42/40/21 43/42/21 41/41/21
f 44/43/22 45/44/22 43/42/22
f 46/45/23 47/46/23 45/44/23
f 48/47/24 49/48/24 47/46/24
f 50/49/25 51/50/25 49/48/25
f 52/51/26 53/52/26 51/50/26
f 54/53/27 55/54/27 53/52/27
f 56/55/28 57/56/28 55/54/28
f 58/57/29 59/58/29 57/56/29
f 60/59/30 61/60/30 59/58/30
f 6/61/31 54/62/31 38/63/31
f 62/64/32 63/65/32 61/60/32
f 64/66/33 1/67/33 63/65/33
f 31/68/34 47/69/34 63/70/34
f 2/1/1 4/4/1 3/2/1
f 4/4/2 6/6/2 5/5/2
f 6/6/3 8/8/3 7/7/3
f 8/8/4 10/10/4 9/9/4
f 10/10/5 12/12/5 11/11/5
f 12/12/6 14/14/6 13/13/6
f 14/14/7 16/16/7 15/15/7
f 16/16/8 18/18/8 17/17/8
f 18/18/9 20/20/9 19/19/9
f 20/20/10 22/22/10 21/21/10
f 22/22/11 24/24/11 23/23/11
f 24/24/12 26/71/12 25/25/12
f 25/25/13 26/71/13 28/26/13
f 27/27/14 28/26/14 30/28/14
f 30/28/15 32/31/15 31/30/15
f 32/31/16 34/72/16 33/32/16
f 34/33/17 36/36/17 35/34/17
f 36/36/18 38/73/18 37/37/18
f 37/37/19 38/73/19 40/38/19
f 39/39/20 40/38/20 42/40/20
f 42/40/21 44/43/21 43/42/21
f 44/43/22 46/45/22 45/44/22
f 46/45/23 48/47/23 47/46/23
f 48/47/24 50/49/24 49/48/24
f 50/49/25 52/51/25 51/50/25
f 52/51/26 54/53/26 53/52/26
f 54/53/27 56/55/27 55/54/27
f 56/55/28 58/57/28 57/56/28
f 58/57/29 60/59/29 59/58/29
f 60/59/30 62/64/30 61/60/30
f 6/61/31 4/74/31 62/75/31
f 4/74/31 2/76/31 62/75/31
f 2/76/31 64/77/31 62/75/31
f 62/75/31 60/78/31 58/79/31
f 58/79/31 56/80/31 54/62/31
f 54/62/31 52/81/31 50/82/31
f 50/82/31 48/83/31 54/62/31
f 48/83/31 46/84/31 54/62/31
f 46/84/31 44/85/31 42/86/31
f 42/86/31 40/87/31 38/63/31
f 38/63/31 36/88/31 34/89/31
f 34/89/31 32/90/31 38/63/31
f 32/90/31 30/91/31 38/63/31
f 30/91/31 28/92/31 26/93/31
f 26/93/31 24/94/31 22/95/31
f 22/95/31 20/96/31 18/97/31
f 18/97/31 16/98/31 14/99/31
f 14/99/31 12/100/31 10/101/31
f 10/101/31 8/102/31 6/61/31
f 62/75/31 58/79/31 54/62/31
f 46/84/31 42/86/31 54/62/31
f 42/86/31 38/63/31 54/62/31
f 30/91/31 26/93/31 22/95/31
f 22/95/31 18/97/31 6/61/31
f 18/97/31 14/99/31 6/61/31
f 14/99/31 10/101/31 6/61/31
f 6/61/31 62/75/31 54/62/31
f 38/63/31 30/91/31 6/61/31
f 30/91/31 22/95/31 6/61/31
f 62/64/32 64/66/32 63/65/32
f 64/66/33 2/103/33 1/67/33
f 63/70/34 1/104/34 3/105/34
f 3/105/34 5/106/34 7/107/34
f 7/107/34 9/108/34 11/109/34
f 11/109/34 13/110/34 15/111/34
f 15/111/34 17/112/34 19/113/34
f 19/113/34 21/114/34 23/115/34
f 23/115/34 25/116/34 27/117/34
f 27/117/34 29/118/34 31/68/34
f 31/68/34 33/119/34 39/120/34
f 33/119/34 35/121/34 39/120/34
f 35/121/34 37/122/34 39/120/34
f 39/120/34 41/123/34 43/124/34
f 43/124/34 45/125/34 47/69/34
f 47/69/34 49/126/34 55/127/34
f 49/126/34 51/128/34 55/127/34
f 51/128/34 53/129/34 55/127/34
f 55/127/34 57/130/34 59/131/34
f 59/131/34 61/132/34 55/127/34
f 61/132/34 63/70/34 55/127/34
f 63/70/34 3/105/34 7/107/34
f 7/107/34 11/109/34 15/111/34
f 15/111/34 19/113/34 31/68/34
f 19/113/34 23/115/34 31/68/34
f 23/115/34 27/117/34 31/68/34
f 39/120/34 43/124/34 47/69/34
f 63/70/34 7/107/34 15/111/34
f 31/68/34 39/120/34 47/69/34
f 47/69/34 55/127/34 63/70/34
f 63/70/34 15/111/34 31/68/34
